# xmcd
#
# Track frame offsets:
#	150
#	12790
#	23210
#	35687
#	49102
#	61392
#	73657
#	86040
#	97162
#	110617
#	123520
#	136700
#	148182
#	158237
#	173157
#	190247
#
# Disc length: 2744 seconds
# Revision: 3
# Processed by: cddbd v1.5.2PL0 Copyright (c) Steve Scherf et al.
# Submitted via: dBpowerAMP V12.0
#
DISCID=e40ab610
DTITLE=Various Artist - 3 Hours Past Midnight
DYEAR=1955
DGENRE=Blues
TTITLE0=Johnny "Guitar" Watson - Hot Little Mama
TTITLE1=Johnny "Guitar" Watson - Ruben
TTITLE2=Johnny "Guitar" Watson - I Love To Love You
TTITLE3=Johnny "Guitar" Watson - Someone Cares For Me
TTITLE4=Johnny "Guitar" Watson - Too Tired
TTITLE5=Johnny "Guitar" Watson and His Orchestra - Oh Baby
TTITLE6=Johnny "Guitar" Watson - The Bear
TTITLE7=Johnny "Guitar" Watson - One More Kiss
TTITLE8=Johnny "Guitar" Watson - Those Lonely Lonely Nights
TTITLE9=Johnny "Guitar" Watson - She Moves Me
TTITLE10=Johnny "Guitar" Watson and His Orchestra - Give A Little
TTITLE11=Johnny "Guitar" Watson - Ain't Gonna Hush
TTITLE12=Young John Watson - Motor Head Baby
TTITLE13=Johnny "Guitar" Watson and His Orchestra - I'm Gonna Hit That Highway
TTITLE14=Johnny "Guitar" Watson - Love Me Baby
TTITLE15=Johnny "Guitar" Watson - Three Hours Past Midnight
EXTD=
EXTT0=
EXTT1=
EXTT2=
EXTT3=
EXTT4=
EXTT5=
EXTT6=
EXTT7=
EXTT8=
EXTT9=
EXTT10=
EXTT11=
EXTT12=
EXTT13=
EXTT14=
EXTT15=
PLAYORDER=
